<?xml version="1.0"?>
<svg xmlns="http://www.w3.org/2000/svg" id="outline" viewBox="0 0 512 512" width="512" height="512"><path d="M445.65674,50.34277A8.00035,8.00035,0,0,0,440,48H392a8.00035,8.00035,0,0,0-5.65674,2.34277L369.651,67.03516,289.91309,20.52148A33.18929,33.18929,0,0,0,240,49.18945v93.6211a33.136,33.136,0,0,0,12.19336,25.68213L84.686,336H72a8.00035,8.00035,0,0,0-5.65674,2.34277l-48,48a8.00034,8.00034,0,0,0,0,11.31446l4.79688,4.79687-6.90137,27.60547a8.00015,8.00015,0,0,0,2.10449,7.59766l56,56a7.99778,7.99778,0,0,0,7.59717,2.10351l27.6051-6.90136,4.79773,4.79785a8.00063,8.00063,0,0,0,11.31348,0l48-48A8.00076,8.00076,0,0,0,176,440v-4.686L355.314,256H360a8.00035,8.00035,0,0,0,5.65674-2.34277l48-48a7.96161,7.96161,0,0,0,2.18677-4.08814l.00122.00025.00537-.02686.00512-.02588,7.51453-37.57226L451.314,136H480a7.99967,7.99967,0,0,0,7.58936-5.46973l8-24a8.00083,8.00083,0,0,0-1.93262-8.1875ZM256,49.18945A17.1898,17.1898,0,0,1,281.85156,34.3418L368,84.59473V88H354.073L283.88525,49.00684A8.0003,8.0003,0,0,0,272,56v80a7.99994,7.99994,0,0,0,11.88525,6.99316L354.073,104H368v3.40527L281.85156,157.6582A17.1898,17.1898,0,0,1,256,142.81055ZM335.52686,96,288,122.4043V69.5957Zm71.78906,66.62988-4.229,21.14307-37.43017-37.43018-12.03052-12.03,16.02478-9.3479ZM165.65674,394.34277A35.08383,35.08383,0,0,0,140.68652,384H128V371.31348a35.35049,35.35049,0,0,0-22.92114-33.07813L148,295.314,220.686,368l-45.21766,45.21777A35.04681,35.04681,0,0,0,165.65674,394.34277ZM159.314,284,204,239.314,276.686,312,232,356.686Zm56-56,42.9209-42.9209A35.35258,35.35258,0,0,0,291.31348,208H304v12.68652a35.30931,35.30931,0,0,0,29.21777,34.78174L288,300.686ZM308.686,192H291.31348a19.28235,19.28235,0,0,1-19.01734-16.02271c.29785.00806.594.02271.8938.02271a33.2263,33.2263,0,0,0,16.72315-4.52148L339.335,142.64917,348.686,152ZM75.31348,352h17.373A19.31415,19.31415,0,0,1,112,371.31348V388.686L71.99976,428.68652,35.31348,392ZM82.4541,479.14062,32.85986,429.5459l3.47443-13.89746,30.009,30.00879L96.35217,475.666ZM160,436.68652l-40,40L83.31372,440,123.314,400h17.37256A19.31415,19.31415,0,0,1,160,419.31348ZM356.68652,240h-17.373A19.31415,19.31415,0,0,1,320,220.68652V203.314l40.00024-40.00024L396.68652,200ZM416,148.686,403.314,136l18.34278-18.34277A8.00076,8.00076,0,0,0,424,112V99.31348l21.20117,21.20141a7.98859,7.98859,0,0,0-2.85791,1.82788ZM474.23389,120H467.314L421.65674,74.34277A8.00038,8.00038,0,0,0,408,80v28.68652L392,124.686l-8.94373-8.94385A7.97882,7.97882,0,0,0,384,112v-8h8a8,8,0,0,0,0-16h-8V80a7.97882,7.97882,0,0,0-.94373-3.74219L395.314,64h41.37256l42.16065,42.16113Z"/><path d="M160,328a24,24,0,1,0,24,24A24.02718,24.02718,0,0,0,160,328Zm0,32a8,8,0,1,1,8-8A8.00917,8.00917,0,0,1,160,360Z"/><path d="M216,272a24,24,0,1,0,24,24A24.02718,24.02718,0,0,0,216,272Zm0,32a8,8,0,1,1,8-8A8.00917,8.00917,0,0,1,216,304Z"/><path d="M272,216a24,24,0,1,0,24,24A24.02718,24.02718,0,0,0,272,216Zm0,32a8,8,0,1,1,8-8A8.00917,8.00917,0,0,1,272,248Z"/></svg>
