<svg height="511pt" viewBox="0 0 511.99955 511" width="511pt" xmlns="http://www.w3.org/2000/svg"><path d="m43.960938 468.398438c56.875 56.871093 147.28125 58.214843 205.734374 6.039062l21.386719 21.386719 63.636719-63.636719-21.257812-21.257812 18.796874-18.953126c44.140626-44.140624 54.394532-107.957031 33.625-160.898437l28.1875-28.1875c2.683594 10.078125 7.964844 19.320313 15.535157 26.886719 23.445312 23.445312 61.398437 23.453125 84.847656 0 23.394531-23.390625 23.394531-61.453125 0-84.847656-7.570313-7.570313-16.808594-12.851563-26.886719-15.535157l5.675782-5.675781-32.265626-32.265625 23.503907-25.625-22.109375-20.277344-22.625 24.671875-31.351563-31.351562-21.210937 21.210937-59.585938-59.582031-139.425781 46.476562-44.925781 44.925782 21.210937 21.214844 39.921875-39.921876 51.480469-17.160156 67.6875 67.6875-22.578125 22.578125c-53.824219-21.023437-117.4375-9.835937-160.875 33.601563l-18.75 18.910156-21.167969-21.167969-63.636719 63.636719 21.386719 21.386719c-51.617187 57.824219-51.441406 148.25 6.035157 205.730469zm429.285156-259.832032c-11.726563 11.722656-30.699219 11.726563-42.425782 0-11.726562-11.722656-11.726562-30.699218 0-42.421875 11.722657-11.722656 30.699219-11.722656 42.425782 0 11.695312 11.695313 11.695312 30.726563 0 42.421875zm-42.425782-84.84375-21.214843 21.210938-42.421875-42.425782 21.210937-21.210937zm-106.0625-21.214844-57.078124-57.082031 31.816406-10.605469 46.472656 46.476563c-2.585938 2.585937-19.464844 19.46875-21.210938 21.210937zm21.214844 21.214844 42.421875 42.421875-37.035156 37.039063c-5.511719-8.304688-11.890625-16.117188-19.097656-23.324219-7.265625-7.265625-15.09375-13.621094-23.347657-19.082031zm-204.621094 77.347656c46.785157-46.785156 122.910157-46.789062 169.695313 0 46.785156 46.785157 46.785156 122.90625-.042969 169.738282l-18.753906 18.910156-169.695312-169.695312zm-61.175781 18.996094 212.117188 212.121094-21.210938 21.210938-212.121093-212.117188zm-20.988281 63.863282 169.246094 169.246093c-46.675782 40.453125-118.078125 39.1875-163.257813-5.988281-45.476562-45.476562-46.195312-116.867188-5.988281-163.257812zm0 0"/></svg>