<?xml version="1.0"?>
<svg xmlns="http://www.w3.org/2000/svg" viewBox="0 0 512 512" width="512" height="512"><g id="outline"><path d="M124.849,455.354a8,8,0,0,0,10.505-4.2l3.428-8a8,8,0,1,0-14.707-6.3l-3.429,8A8,8,0,0,0,124.849,455.354Z"/><path d="M138.562,423.354a8,8,0,0,0,10.5-4.2l10.287-24a8,8,0,1,0-14.708-6.3l-10.286,24A8,8,0,0,0,138.562,423.354Z"/><path d="M484.741,17.557a7.994,7.994,0,0,0-9.578.071L440.8,43.712a8.258,8.258,0,0,1-4.951,1.668,8.344,8.344,0,0,1-1.83-.209,84.674,84.674,0,0,0-74.382,19.811c-2.576,2.328-5.033,4.543-7.227,6.518a23.456,23.456,0,0,1-15.471,6.05h-.457a5.154,5.154,0,0,1-3.627-1.477,5.057,5.057,0,0,1-1.506-3.613v-.77a5.075,5.075,0,0,1,4.432-5.024l6.587-.84a50.121,50.121,0,0,0,38.611-27.55A8,8,0,0,0,376.3,27.127a128.823,128.823,0,0,0-80.96.459l-8.711,2.96a109.782,109.782,0,0,0-51.7,37.018,122.508,122.508,0,0,0-23.022,51.071l-5.171,26.633-5.4-2.205a18.024,18.024,0,0,0-23.468,9.866L173.33,164.04a18,18,0,0,0,1.756,16.869l-24.08,59.006-19.57,8.227a57.616,57.616,0,0,0-31.226,31.552L36.244,436.434A18,18,0,0,0,46.109,459.9l85.179,34.762a18,18,0,0,0,23.468-9.865l63.966-156.739a57.626,57.626,0,0,0-.233-44.391l-8.227-19.57L234.337,205.1a18.244,18.244,0,0,0,3.373-1.044,17.883,17.883,0,0,0,9.69-9.793l4.535-11.11a18.006,18.006,0,0,0-5.178-20.66,3.6,3.6,0,0,1,.69-.373,3.074,3.074,0,0,1,3.55,1.256l.219.345a94.789,94.789,0,0,0,37.851,33.7l5.046,2.483a60.218,60.218,0,0,0,54.887-.99l11.239-6.025a24.649,24.649,0,0,1,13.019-2.907l33.87,1.79a8,8,0,0,0,4.593-14.815L364.809,148.3a23.92,23.92,0,0,0-20.251-2.25c-2.022.689-4.319,1.469-6.66,2.262l-5.179,1.757a3.951,3.951,0,0,1-3.038-.194,4.057,4.057,0,0,1-2.038-2.315l-.065-.2-.044-.132a3.621,3.621,0,0,1,2.274-4.612l18.874-6.418a24.982,24.982,0,0,1,22.021,3.013l.53.369a53.923,53.923,0,0,0,47.653,6.57l.634-.213a67.578,67.578,0,0,0,29.8-20.3l19.49-23a8,8,0,0,0-8.679-12.746L442,96.054a45.882,45.882,0,0,1-36.535-3.065,27.968,27.968,0,0,1,21.443-9.65l17.37.24a7.616,7.616,0,0,0,1.591-.137A40.564,40.564,0,0,0,476.383,57.5l11.139-30.78A8,8,0,0,0,484.741,17.557Zm-344.8,461.2a2,2,0,0,1-2.607,1.1l-85.18-34.762a2,2,0,0,1-1.1-2.608L84.965,359.4l113.268-23.477ZM194.2,261.12a8,8,0,0,0,.033,6.123l9.511,22.626a41.684,41.684,0,0,1,1.543,28.247L92.25,341.545l22.774-55.806a41.721,41.721,0,0,1,22.611-22.847l22.626-9.511a8,8,0,0,0,4.307-4.353l24.182-59.255,29.628,12.091Zm42.925-84.01-4.534,11.111a2,2,0,0,1-2.607,1.095h0l-40.738-16.625a2,2,0,0,1-1.1-2.607l4.534-11.109a2,2,0,0,1,2.607-1.1L236.023,174.5a2,2,0,0,1,1.1,2.607ZM461.339,52.056a24.505,24.505,0,0,1-17.7,15.513l-16.511-.228a43.979,43.979,0,0,0-39.914,24.441,8,8,0,0,0,2.3,9.878A61.923,61.923,0,0,0,438.7,113.423l-1.586,1.871a51.544,51.544,0,0,1-22.736,15.489l-.631.213a37.829,37.829,0,0,1-33.418-4.584l-.534-.371a41.07,41.07,0,0,0-36.256-4.995l-18.868,6.416A19.618,19.618,0,0,0,312.36,152.3l.072.223c.013.042.027.085.042.127a20,20,0,0,0,25.4,12.565l5.16-1.751c2.351-.8,4.656-1.579,6.68-2.269a7.963,7.963,0,0,1,6.744.752L376.4,174.133l-2.3-.121A40.626,40.626,0,0,0,352.67,178.8l-11.232,6.021a44.191,44.191,0,0,1-40.266.733l-5.043-2.483A78.739,78.739,0,0,1,264.693,155.1l-.218-.344a19.072,19.072,0,0,0-22.2-7.774c-4.343,1.491-8.051,4.788-10.987,8.3l-9.448-3.855,5.776-29.747a106.438,106.438,0,0,1,20-44.369,93.78,93.78,0,0,1,44.163-31.622l8.708-2.959a112.826,112.826,0,0,1,60.4-3.255,33.919,33.919,0,0,1-5.027,4.4,34.221,34.221,0,0,1-15.506,6.077l-6.586.84a21.105,21.105,0,0,0-18.412,20.9v.77a21.093,21.093,0,0,0,21.2,21.09h.463A39.482,39.482,0,0,0,363.12,83.388c2.194-1.974,4.657-4.2,7.234-6.525A68.623,68.623,0,0,1,430.582,60.8a24.473,24.473,0,0,0,19.885-4.335l12.791-9.709Z"/><path d="M157.47,272.41l-15.461,5.154a26.121,26.121,0,0,0-16.445,16.444L120.41,309.47a8,8,0,1,0,15.18,5.06l5.154-15.463a10.043,10.043,0,0,1,6.324-6.323l15.462-5.154a8,8,0,1,0-5.06-15.18Z"/><path d="M134.58,432.646a8,8,0,0,0-10.505,4.2l-3.429,8a8,8,0,1,0,14.708,6.3l3.428-8A8,8,0,0,0,134.58,432.646Z"/><path d="M155.151,384.646a8,8,0,0,0-10.505,4.2l-10.286,24a8,8,0,1,0,14.707,6.3l10.287-24A8,8,0,0,0,155.151,384.646Z"/></g></svg>
