<?xml version="1.0"?>
<svg
  xmlns="http://www.w3.org/2000/svg"
  id="outline"
  viewBox="0 0 512 512"
  width="512"
  height="512"
>
  <path
    fill="rgb(251,251,251)"
    d="M421.65674,18.34277A8.00035,8.00035,0,0,0,416,16H248a8.00091,8.00091,0,0,0-5.793,2.48242l-160,168a8.00106,8.00106,0,0,0,.13623,11.17481l16,16a8.00042,8.00042,0,0,0,10.2251.91015l62.93542-43.78125a103.56749,103.56749,0,0,0,14.60694,31.78907L64,324.686,53.65674,314.34277a8.00182,8.00182,0,0,0-11.31348,0l-24,24a8.00034,8.00034,0,0,0,0,11.31446l144,144a8.00063,8.00063,0,0,0,11.31348,0l24-24a8.00034,8.00034,0,0,0,0-11.31446L187.314,448,392,243.314l10.34326,10.34327a8.00063,8.00063,0,0,0,11.31348,0l24-24a8.00034,8.00034,0,0,0,0-11.31446L395.314,176,408,163.314l10.34326,10.34327,11.31348-11.31446L419.314,152l30.84668-30.84668,19.30957,6.43652a8.00123,8.00123,0,0,0,9.186-3.15234l16-24a8.00027,8.00027,0,0,0-.99951-10.09473ZM104.9248,197.61133l-5.74755-5.74805,72.823-76.46387A103.72338,103.72338,0,0,0,168,144c0,3.17969.15161,6.32422.43237,9.43213ZM272,56a87.49485,87.49485,0,0,1,42.02124,10.66479l-3.678,3.678a24.87125,24.87125,0,0,0-5.9126,9.38086,72.014,72.014,0,1,0,31.84046,31.83448,24.8196,24.8196,0,0,0,9.38562-5.90088l3.67847-3.67847A88.01022,88.01022,0,1,1,272,56Zm78.34326,22.34277-16,16a8.97038,8.97038,0,1,1-12.68652-12.68554l16-16a8.97038,8.97038,0,1,1,12.68652,12.68554ZM216,144a56.06417,56.06417,0,0,1,52.57092-55.88477L258.34326,98.34277a8.00034,8.00034,0,0,0,0,11.31446L268.686,120,221.1875,167.499A55.651,55.651,0,0,1,216,144Zm112,0a56.00293,56.00293,0,0,1-1.19141,11.49463L275.31348,104l12.68628-12.68579L326.094,129.408A56.33507,56.33507,0,0,1,328,144Zm-48-12.686,40.54651,40.54639a55.92207,55.92207,0,0,1-90.392,9.29956Zm-88,88L292.686,320,256,356.686,155.314,256ZM168,476.68652,35.314,344,48,331.31348,180.686,464ZM75.314,336,144,267.314,244.686,368,176,436.686ZM304,308.686l-66.61719-66.61719a103.91721,103.91721,0,0,0,117.738-35.63452L380.68616,232Zm104-71.99952-44.08093-44.08178a103.38336,103.38336,0,0,0,7.45764-17.91431L420.68652,224ZM384,164.686l-8.69531-8.69532a103.5788,103.5788,0,0,0-.2002-25.57226L396.686,152ZM368.90991,101.596l13.77515,2.29565a8.01069,8.01069,0,0,0,9.15967-6.32226l5.06836-25.34278L436.686,112,408,140.686Zm99.823,8.88257-16.41162-5.47071-54.66455-54.665a8.00072,8.00072,0,0,0-13.50147,4.08789l-6.48095,32.40528-12.22168-2.03711a24.97641,24.97641,0,0,0-39.10938-30.45606l-.6123.61231a104.04642,104.04642,0,0,0-87.17615-9.4375L251.42871,32H412.68652l65.01905,65.01953Z"
  />
</svg>
